<svg width="67" height="78" viewBox="0 0 67 78" xmlns="http://www.w3.org/2000/svg"><title>features/feat-sync</title><g fill="none" fill-rule="evenodd"><path d="M49.95 41.028c0-2.933-1.781-5.44-4.303-6.47-1.996-4.969-5.224-6.987-9.176-6.987-3.715 0-6.934 2.152-8.513 5.302-2.512-1.088-5.344.719-5.448 3.516a5.973 5.973 0 0 0-3.93 5.636c0 3.304 2.634 5.982 5.882 5.982H44.07s5.881-1.11 5.881-6.979" stroke="#FE336F" stroke-width="1.3"/><path d="M17.437 55.259c-5.1-4.923-7.654-11.792-7.006-18.844 1.173-12.745 12.492-22.158 25.231-20.986l-.424 4.623 14.712-7.969L36.94 1.561l-.426 4.623C18.677 4.542 2.832 17.72 1.19 35.564.282 45.436 3.855 55.05 10.993 61.94l6.444-6.681zM49.249 22.176c5.1 4.923 7.654 11.793 7.006 18.844-1.173 12.745-12.492 22.16-25.232 20.986l.425-4.623-14.712 7.97 13.01 10.52.426-4.622c17.837 1.642 33.682-11.537 35.324-29.38.908-9.87-2.665-19.485-9.803-26.376l-6.444 6.681z" stroke="#2897C5" stroke-width="1.5"/></g></svg>