<svg width="68" height="68" viewBox="0 0 68 68" xmlns="http://www.w3.org/2000/svg" xmlns:xlink="http://www.w3.org/1999/xlink"><title>features/feat-support</title><defs><path id="a" d="M1.858 24.329a1.92 1.92 0 0 1 2.227-1.43l13.271 2.526a1.922 1.922 0 0 1 1.286.895c.161.266.163 10.586.002 10.852-.283.468-.751.792-1.288.894L4.085 40.592a1.922 1.922 0 0 1-2.227-1.43 31.121 31.121 0 0 1 0-14.833"/><path id="b" d="M61.588 39.163a1.92 1.92 0 0 1-2.226 1.43L46.09 38.066a1.922 1.922 0 0 1-1.285-.894c-.162-.266-.163-10.586-.002-10.853.283-.467.75-.791 1.287-.893L59.362 22.9a1.922 1.922 0 0 1 2.226 1.43 31.121 31.121 0 0 1 0 14.833"/><path id="c" d="M39.135 1.86a1.922 1.922 0 0 1 1.429 2.227L38.039 17.37a1.926 1.926 0 0 1-.893 1.286c-.266.162-10.58.163-10.845.002a1.924 1.924 0 0 1-.893-1.288L22.883 4.087a1.924 1.924 0 0 1 1.429-2.228 31.057 31.057 0 0 1 14.823 0"/><path id="d" d="M1.858 24.329a1.92 1.92 0 0 1 2.227-1.43l13.271 2.526a1.922 1.922 0 0 1 1.286.895c.161.266.163 10.586.002 10.852-.283.468-.751.792-1.288.894L4.085 40.592a1.922 1.922 0 0 1-2.227-1.43 31.121 31.121 0 0 1 0-14.833"/><path id="e" d="M61.588 39.163a1.92 1.92 0 0 1-2.226 1.43L46.09 38.066a1.922 1.922 0 0 1-1.285-.894c-.162-.266-.163-10.586-.002-10.853.283-.467.75-.791 1.287-.893L59.362 22.9a1.922 1.922 0 0 1 2.226 1.43 31.121 31.121 0 0 1 0 14.833"/><path id="f" d="M39.135 1.86a1.922 1.922 0 0 1 1.429 2.227L38.039 17.37a1.926 1.926 0 0 1-.893 1.286c-.266.162-10.58.163-10.845.002a1.924 1.924 0 0 1-.893-1.288L22.883 4.087a1.924 1.924 0 0 1 1.429-2.228 31.057 31.057 0 0 1 14.823 0"/></defs><g fill="none" fill-rule="evenodd"><path d="M33.922 49.746c-8.494 0-15.38-6.892-15.38-15.392s6.886-15.392 15.38-15.392 15.381 6.892 15.381 15.392-6.887 15.392-15.38 15.392m0-44.252c-15.928 0-28.84 12.92-28.84 28.86s12.912 28.86 28.84 28.86c15.926 0 28.839-12.92 28.839-28.86s-12.913-28.86-28.84-28.86" stroke="#2897C5" stroke-width="1.5"/><path d="M33.922 52.58c-10.058 0-18.213-8.16-18.213-18.226 0-10.066 8.155-18.227 18.213-18.227 10.059 0 18.214 8.161 18.214 18.227S43.98 52.581 33.922 52.581m0-44.24c-14.356 0-25.995 11.646-25.995 26.013s11.639 26.014 25.995 26.014c14.357 0 25.996-11.647 25.996-26.014 0-14.367-11.64-26.014-25.996-26.014" fill="#F2F9FB"/><g transform="translate(2.199 2.608)"><use stroke="#F3F4F7" stroke-width="5.6" xlink:href="#a"/><use xlink:href="#a"/></g><path d="M26.51 64.24a1.922 1.922 0 0 1-1.428-2.228l2.524-13.281a1.926 1.926 0 0 1 .893-1.286c.267-.162 10.58-.164 10.846-.002.467.283.791.751.893 1.288l2.524 13.281a1.924 1.924 0 0 1-1.428 2.228 31.057 31.057 0 0 1-14.824 0" stroke="#F3F4F7" stroke-width="5.6"/><g transform="translate(2.199 2.608)"><use stroke="#F3F4F7" stroke-width="5.6" xlink:href="#b"/><use xlink:href="#b"/></g><g transform="translate(2.199 2.608)"><use stroke="#F3F4F7" stroke-width="5.6" xlink:href="#c"/><use xlink:href="#c"/></g><g><g transform="translate(2.199 2.608)"><use stroke="#FE336F" stroke-width="1.82" fill="#F3F4F7" xlink:href="#d"/><use xlink:href="#d"/></g><path d="M26.51 64.24a1.922 1.922 0 0 1-1.428-2.228l2.524-13.281a1.926 1.926 0 0 1 .893-1.286c.267-.162 10.58-.164 10.846-.002.467.283.791.751.893 1.288l2.524 13.281a1.924 1.924 0 0 1-1.428 2.228 31.057 31.057 0 0 1-14.824 0" stroke="#FE336F" stroke-width="1.82" fill="#F3F4F7"/><g transform="translate(2.199 2.608)"><use stroke="#FE336F" stroke-width="1.82" fill="#F3F4F7" xlink:href="#e"/><use xlink:href="#e"/></g><g transform="translate(2.199 2.608)"><use stroke="#FE336F" stroke-width="1.82" fill="#F3F4F7" xlink:href="#f"/><use xlink:href="#f"/></g></g></g></svg>