<svg width="247" height="180" viewBox="0 0 247 180" xmlns="http://www.w3.org/2000/svg"><title>features/illus-type-mobilesearch</title><g fill="none" fill-rule="evenodd"><path d="M243.464 121.077c.529.154 1 .273 1.41.354 4.097 8.107 1.585 13.977-2.068 16.6-7.625 4.613-68.41 39.249-68.41 39.249-4.805 2.74-12.521 2.637-17.251-.219L4.557 84.931c-7.83-7.42-1.761-17.718-1.761-17.718l1.947-.713c-1.367 1.76-.803 3.918 1.712 5.426l153.711 92.15c3.311 1.986 8.71 2.012 12.042.068l68.796-40.126c1.396-.814 2.216-1.855 2.46-2.94z" stroke-opacity=".333" stroke="#2897C5" stroke-width="2"/><path d="M6.601 65.908c-3.391 1.854-3.454 4.968-.146 6.952l153.711 92.15c3.311 1.986 8.722 2.042 12.086.127l69.067-39.333c3.364-1.916 3.39-5.062.055-7.03L87.98 28.277c-3.333-1.967-8.793-2.054-12.177-.204L6.601 65.908z" stroke-opacity=".333" stroke="#2897C5" stroke-width="2"/><path d="M27.881 73.478c-1.96 1.027-2.008 2.791-.134 3.926l111.52 67.479c1.885 1.14 4.95 1.154 6.855.023l61.34-36.394c1.901-1.128 1.897-2.957 0-4.08L98.832 40.127c-1.9-1.125-5.025-1.207-6.99-.177l-63.96 33.529z" fill-opacity=".126" fill="#2897C5"/><path d="M197.454 138.053c4.116-2.99 2.612-6.431 0-8.913s-8.505-2.028-12.132 0c-3.626 2.027-3.965 6.499-1.133 8.913 2.833 2.413 9.148 2.99 13.265 0z" stroke-opacity=".333" stroke="#2897C5" stroke-width="2"/><path d="M44.153 52.873c-1.475.754-1.825 2.41-.778 3.7l-.36-.445c1.045 1.29 3.088 1.723 4.564.968l15.253-7.8c1.475-.755 1.824-2.41.778-3.7l.36.444c-1.045-1.289-3.089-1.722-4.564-.968l-15.253 7.8z" fill-opacity=".333" fill="#2897C5"/><path d="M33.307 42.522c-1.937 1.062-1.968 2.855-.093 3.989l111.519 67.479c1.886 1.14 4.962 1.177 6.877.078l59.656-34.238c1.912-1.098 1.931-2.901.035-4.033L100.448 9.646c-1.893-1.13-4.99-1.189-6.935-.123l-60.206 33z" stroke-opacity=".333" stroke="#2897C5" stroke-width="2" fill-opacity=".333" fill="#2897C5" opacity=".784"/><path d="M131.262 14.443c-.974-.527-2.549-.529-3.516-.004L78.948 40.91c-1.942 1.052-1.951 2.77-.022 3.835l13.608 7.514c1.93 1.065 5.059 1.063 7-.01L146.262 26.4c1.936-1.07 1.931-2.79-.014-3.844l-14.987-8.113zM154.56 27.517c-.974-.527-2.548-.528-3.516-.003l-48.798 26.469c-1.942 1.053-1.951 2.771-.022 3.836l13.608 7.513c1.93 1.066 5.059 1.064 7-.01l46.729-25.847c1.936-1.07 1.931-2.79-.014-3.844l-14.987-8.114zM178.79 40.592c-.974-.527-2.548-.529-3.516-.004l-48.798 26.47c-1.942 1.053-1.951 2.77-.022 3.836l13.608 7.513c1.93 1.065 5.059 1.064 7-.01L193.79 52.55c1.936-1.071 1.931-2.791-.014-3.844l-14.987-8.114z" stroke="#2897C5" fill-opacity=".333" fill="#2897C5"/><g stroke="#2897C5" stroke-width="2"><path d="M54.428 30.868c-5.215-3.122-5.077-7.937.307-10.753L88.306 2.55c5.385-2.817 14.085-2.77 19.442.11l-.28-.15c5.353 2.879 5.323 7.487-.067 10.292L72.684 30.875c-5.39 2.806-13.988 2.549-19.202-.573l.946.566z"/><path d="M98.782 10.954c2.531-1.745 2.35-4.053.28-5.423-2.069-1.37-5.51-.962-7.74.221-2.23 1.184-2.439 3.793-.697 5.202 1.742 1.41 5.626 1.746 8.157 0zM99.716 8.032l7.455-.187"/></g></g></svg>