<svg width="302" height="180" viewBox="0 0 302 180" xmlns="http://www.w3.org/2000/svg"><title>features/illus-type-instantsearch</title><g fill="none" fill-rule="evenodd"><path d="M160.969 7.756c-1.909-1.103-5.03-1.127-6.962-.058L2.03 91.766c-1.936 1.07-1.966 2.852-.061 3.982l138.985 82.45c1.902 1.128 5.002 1.156 6.926.061l151.76-86.383c1.922-1.094 1.932-2.876.025-3.978L160.97 7.756z" stroke-opacity=".333" stroke="#2897C5" stroke-width="2"/><path d="M98.828 76.242c-1.428-.832-3.751-.822-5.165.01l-50.64 29.751c-1.424.837-1.428 2.2-.006 3.047l98.908 58.89c1.42.846 3.731.861 5.168.03l52.2-30.165c1.433-.829 1.427-2.181.01-3.007L98.829 76.242zM153.48 26.344c-7.206-4.09-18.87-4.07-26.068.053L62.325 63.67c-7.19 4.118-7.148 10.72.087 14.741l-5.236-2.91c7.239 4.024 18.952 3.96 26.153-.135l65.133-37.047c7.206-4.098 7.204-10.735-.002-14.824l5.02 2.849zM187.493 25.441c-1.431-.834-3.765-.844-5.203-.03l-77.86 44.15c-1.443.817-1.459 2.167-.035 3.016l99.102 59.048c1.423.848 3.742.882 5.193.069l79.45-44.562c1.444-.81 1.463-2.14.025-2.978L187.493 25.441z"/><path d="M150.878 3.087c-5.77-3.273-15.106-3.258-20.855.034L59.714 43.386c-5.748 3.292-5.714 8.57.08 11.79 5.793 3.22 15.154 3.177 20.92-.103l70.363-40.02c5.761-3.278 5.754-8.588-.014-11.86l-.185-.106z" stroke="#2897C5" stroke-width="2"/><path d="M87.286 32.323c-.953-.564-2.475-.537-3.405.064l-.254.165c-.928.6-.906 1.534.053 2.09l11.513 6.674c.957.555 2.514.556 3.467.01l.216-.124c.957-.55.967-1.448.007-2.016l-11.597-6.863z" fill="#2897C5"/><path d="M98.828 55.893c-1.428-.832-3.751-.821-5.165.01l-50.64 29.751c-1.424.837-1.428 2.2-.006 3.047l98.908 58.89c1.42.846 3.731.861 5.168.03l52.2-30.165c1.433-.829 1.427-2.181.01-3.007L98.829 55.893zM187.493 5.092c-1.431-.834-3.765-.844-5.203-.03l-77.86 44.15c-1.443.817-1.459 2.167-.035 3.016l99.102 59.048c1.423.848 3.742.882 5.193.069l79.45-44.562c1.444-.81 1.463-2.14.025-2.978L187.493 5.092z" stroke-opacity=".333" stroke="#2897C5" stroke-width="2" fill-opacity=".333" fill="#2897C5"/><path d="M84.763 38.847c-1.952-1.041-5.08-.971-6.969.147L67.59 45.032c-1.896 1.123-1.838 2.848.131 3.855l4.089 2.09c1.969 1.006 5.12.935 7.04-.161l10.222-5.835c1.92-1.095 1.902-2.822-.06-3.868l-4.249-2.266zM172.336 107.008c-1.875-1.169-4.932-1.204-6.835-.075L129.57 128.26c-1.9 1.127-1.885 2.933.036 4.035l-.527-.302c1.92 1.1 5.03 1.088 6.936-.021l36.026-20.978c1.911-1.112 1.938-2.962.065-4.13l.23.144zM162.834 101.271c-1.876-1.168-4.932-1.204-6.836-.074l-35.93 21.327c-1.9 1.127-1.885 2.933.035 4.035l-.526-.302c1.92 1.1 5.03 1.088 6.935-.022l36.027-20.977c1.91-1.112 1.938-2.962.064-4.13l.23.143zM153.07 94.929c-1.875-1.169-4.931-1.204-6.835-.074l-35.93 21.326c-1.9 1.128-1.885 2.934.035 4.035l-.526-.302c1.92 1.1 5.03 1.089 6.935-.021l36.026-20.977c1.911-1.113 1.939-2.963.065-4.131l.23.144zM181.829 112.99c-1.875-1.17-4.932-1.205-6.836-.075l-35.93 21.326c-1.9 1.128-1.885 2.934.035 4.035l-.526-.301c1.92 1.1 5.03 1.088 6.936-.022l36.026-20.977c1.91-1.113 1.938-2.963.064-4.13l.23.143zM98.121 65.26c-.981-.51-2.552-.491-3.53.055l-4.574 2.554c-.968.541-.949 1.366.049 1.846l4.942 2.376c.995.479 2.605.465 3.584-.025l4.65-2.326c.985-.492.982-1.308.005-1.816l-5.126-2.664zM87.671 71.445c-.981-.51-2.552-.49-3.53.056l-4.574 2.554c-.968.54-.949 1.365.049 1.845l4.942 2.377c.995.478 2.605.464 3.584-.026l4.65-2.326c.985-.492.982-1.308.005-1.815l-5.126-2.665zM77.453 77.275c-.982-.51-2.552-.492-3.53.055l-4.574 2.554c-.968.54-.95 1.366.049 1.846l4.942 2.376c.995.478 2.604.465 3.584-.025l4.65-2.326c.984-.493.981-1.308.005-1.816l-5.126-2.664z" stroke="#2897C5" fill-opacity=".333" fill="#2897C5"/><path d="M115.093 91.287c2.01-1.32 1.867-3.064.223-4.1-1.645-1.035-4.379-.726-6.15.168-1.772.894-1.938 2.867-.554 3.932s4.47 1.32 6.48 0zM112.834 105.221c2.012-1.319 1.867-3.063.223-4.099-1.644-1.035-4.378-.727-6.15.168-1.772.894-1.938 2.867-.554 3.931 1.384 1.065 4.47 1.32 6.481 0z" stroke="#2897C5" fill="#2897C5"/><path d="M66.952 83.728c-.981-.51-2.552-.491-3.53.055l-4.574 2.554c-.968.541-.95 1.366.049 1.846l4.942 2.376c.995.479 2.605.465 3.584-.025l4.65-2.326c.985-.492.982-1.308.005-1.816l-5.126-2.664zM109.905 71.355c-.982-.51-2.553-.492-3.531.055l-4.574 2.554c-.968.54-.949 1.366.05 1.846l4.941 2.376c.995.478 2.605.465 3.585-.025l4.65-2.326c.984-.493.98-1.308.004-1.816l-5.125-2.664zM99.455 77.54c-.982-.51-2.553-.491-3.531.055L91.35 80.15c-.968.541-.949 1.366.05 1.846l4.941 2.376c.995.479 2.605.465 3.585-.025l4.65-2.326c.984-.492.98-1.308.004-1.815l-5.125-2.665zM89.236 83.37c-.982-.51-2.552-.492-3.53.055l-4.574 2.554c-.968.54-.95 1.366.049 1.845l4.942 2.377c.995.478 2.604.465 3.584-.026l4.65-2.325c.985-.493.982-1.308.005-1.816l-5.126-2.664zM78.736 89.823c-.982-.51-2.553-.492-3.531.055l-4.574 2.554c-.968.54-.949 1.366.05 1.846l4.941 2.376c.995.478 2.605.465 3.585-.025l4.65-2.326c.984-.493.98-1.308.004-1.816l-5.125-2.664z" stroke="#2897C5" fill-opacity=".333" fill="#2897C5"/><path d="M128.445 80.451c-.927-.6-2.449-.628-3.396-.066l-39.375 23.37c-.949.564-.94 1.449.038 1.988l-.23-.127c.97.534 2.538.511 3.493-.044l39.473-22.984c.959-.559.978-1.502.057-2.098l-.06-.039zM138.808 86.794c-.928-.6-2.45-.629-3.397-.066l-39.375 23.37c-.949.563-.94 1.448.039 1.987l-.231-.127c.97.535 2.538.512 3.493-.044L138.81 88.93c.959-.558.978-1.502.058-2.097l-.06-.039z" fill-opacity=".333" fill="#2897C5"/><path d="M190.82 15.948c-1.905-1.127-4.999-1.152-6.915-.053L146.207 37.53c-1.914 1.098-1.9 2.846.041 3.91l.368.2c1.936 1.062 5.073 1.04 7-.046l37.775-21.273c1.93-1.087 1.955-2.878.045-4.009l-.616-.364zM189.014 28.766c-1.905-1.128-4.996-1.145-6.914-.034l-25.588 14.829c-1.914 1.109-1.9 2.865.042 3.928l.367.202c1.936 1.06 5.059 1.044 6.985-.044L189.6 33.136c1.922-1.085 1.94-2.875.03-4.006l-.616-.364zM147.548 46.293c-5.23-2.968-13.697-2.964-18.925.017l-1.021.583c-5.222 2.977-5.192 7.76.058 10.68l.905.502c5.254 2.921 13.784 2.925 19.042.016l.967-.535c5.263-2.912 5.282-7.683.059-10.647l-1.085-.616zM219.495 31.97c-1.905-1.128-4.999-1.153-6.914-.053l-37.7 21.634c-1.913 1.099-1.899 2.846.042 3.91l.368.201c1.936 1.06 5.073 1.039 7-.047l37.775-21.273c1.93-1.086 1.955-2.878.045-4.008l-.616-.365zM217.689 44.787c-1.905-1.127-4.996-1.145-6.914-.033l-25.588 14.828c-1.913 1.109-1.9 2.865.042 3.929l.367.201c1.936 1.06 5.06 1.044 6.985-.044l25.694-14.51c1.922-1.086 1.94-2.876.03-4.007l-.616-.364zM176.223 62.315c-5.23-2.968-13.697-2.964-18.925.016l-1.021.583c-5.222 2.977-5.191 7.761.058 10.68l.905.502c5.254 2.921 13.784 2.926 19.042.017l.967-.536c5.263-2.912 5.282-7.682.06-10.647l-1.086-.615zM249.382 48.975c-1.905-1.127-4.999-1.152-6.915-.053L204.77 70.557c-1.914 1.098-1.9 2.846.041 3.91l.367.2c1.937 1.062 5.074 1.04 7-.046l37.776-21.273c1.93-1.087 1.955-2.878.044-4.009l-.615-.364zM247.576 61.793c-1.906-1.128-4.996-1.145-6.914-.034l-25.588 14.829c-1.914 1.108-1.9 2.865.041 3.928l.368.202c1.936 1.06 5.059 1.044 6.985-.044l25.694-14.511c1.921-1.085 1.94-2.876.03-4.006l-.616-.364zM206.11 79.32c-5.23-2.968-13.697-2.964-18.925.017l-1.021.582c-5.222 2.978-5.192 7.762.058 10.68l.905.503c5.254 2.92 13.784 2.925 19.042.016l.967-.535c5.263-2.912 5.282-7.683.059-10.647l-1.085-.616z" stroke="#2897C5" fill-opacity=".333" fill="#2897C5"/><path d="M141.623 12.547c2.926-1.884 2.716-4.376.325-5.856-2.392-1.48-6.369-1.039-8.946.24-2.577 1.277-2.818 4.095-.805 5.616s6.5 1.885 9.426 0zM142.972 9.472l8.077-.161" stroke="#2897C5" stroke-width="2"/></g></svg>