<svg width="299" height="156" viewBox="0 0 299 156" xmlns="http://www.w3.org/2000/svg"><title>features/illus-type-autocomplete</title><g fill="none" fill-rule="evenodd"><path d="M172.253 7.309c-1.884-1.153-4.936-1.158-6.833 0L1.975 107.015c-1.89 1.152-1.897 3.032-.028 4.193l37.87 23.506c1.873 1.163 4.93 1.18 6.824.041l164.92-99.238c1.895-1.14 1.896-3.004.019-4.152L172.253 7.31z" stroke-opacity=".333" stroke="#2897C5" stroke-width="2"/><path d="M181.184 32.22c-10.024-5.84-26.253-5.81-36.258.074L45.302 90.877c-12.383 7.281-12.312 18.953.162 26.072l-12.903-7.364c12.472 7.118 32.631 7.02 45.028-.22l95.415-55.725c12.396-7.24 12.389-18.967-.024-26.2l8.204 4.78zM189.295 58.003c-3.342-1.953-8.749-1.952-12.087.01L83.364 113.13c-3.334 1.958-3.332 5.117.017 7.063l106.066 61.633c3.343 1.942 8.755 1.944 12.099-.001l93.98-54.7c3.338-1.943 3.337-5.1-.006-7.054L189.295 58.003z"/><path d="M38.238 86.484l.702-1.236c8.895 5.076 23.455 5.003 32.303-.165l106.596-62.255c8.315-4.856 8.312-12.222-.005-17.068l-1.937-1.128c-7.05-4.108-18.659-4.082-25.694.054L40.46 69.22c-8.294 4.877-8.247 12.188.111 16.958l-.706 1.242c-.573-.27-1.13-.56-1.666-.866l1.63.93a21.137 21.137 0 0 1-1.59-1zm1.626.936l.706-1.242-1.63-.93-.702 1.236c-7.745-5.385-7.267-13.428 1.462-18.561L149.444 3.39c7.5-4.41 19.686-4.44 27.207-.058l1.938 1.129c9.311 5.425 9.314 14.23.006 19.666L71.998 86.382c-8.776 5.126-22.724 5.487-32.134 1.038z" fill="#2897C5"/><path d="M165.063 17.362c3.057-2.108 2.838-4.894.339-6.549-2.5-1.655-6.655-1.162-9.348.267-2.693 1.43-2.945 4.58-.842 6.282 2.104 1.701 6.794 2.107 9.85 0z" stroke="#2897C5" stroke-width="3"/><path d="M81.911 50.485c-1.895-1.133-4.928-1.073-6.779.135l1.053-.687c-1.85 1.207-1.795 3.094.105 4.206l16.494 9.653c1.907 1.116 4.994 1.128 6.916.015l-1.173.679c1.913-1.108 1.921-2.927.032-4.055l-16.648-9.946z" fill="#2897C5"/><path d="M187.027 29.85c-2.037-1.19-5.523-1.185-7.558.01L82.62 86.743c-1.51.887-1.508 1.827.002 2.704l109.09 63.389c2.04 1.186 5.535 1.184 7.575-.003l96.99-56.45c1.513-.882 1.514-1.811-.001-2.696L187.027 29.85zm.756-1.298l109.249 63.836c2.51 1.466 2.506 3.835-.002 5.295l-96.989 56.45c-2.505 1.458-6.574 1.461-9.083.004L81.87 90.748c-2.504-1.455-2.513-3.832-.008-5.302l96.848-56.883c2.501-1.47 6.566-1.476 9.073-.011z" fill-opacity=".333" fill="#2897C5"/><path d="M187.783 28.552l109.249 63.836c2.51 1.466 2.506 3.835-.002 5.295l-96.989 56.45c-2.505 1.458-6.574 1.461-9.083.004L81.87 90.748c-2.504-1.455-2.513-3.832-.008-5.302l96.848-56.883c2.501-1.47 6.566-1.476 9.073-.011z" fill="#46AEDA" opacity=".297"/><path d="M75.432 59.396c-1.936-1.059-5.041-.985-6.92.156l-19.289 11.71c-1.885 1.146-1.83 2.905.121 3.928l10.093 5.293c1.953 1.024 5.081.949 6.984-.165l19.376-11.346c1.904-1.115 1.88-2.876-.057-3.936l-10.308-5.64zM135.309 78.118c-6.358-3.662-16.67-3.647-23.023.03l-.948.55c-6.357 3.678-6.324 9.587.07 13.195l.808.456c6.396 3.609 16.776 3.616 23.163.03l.917-.516c6.397-3.592 6.432-9.472.07-13.135l-1.057-.61zM171.662 99.4c-6.358-3.663-16.67-3.648-23.023.03l-.948.548c-6.357 3.68-6.324 9.588.07 13.196l.808.456c6.396 3.609 16.776 3.616 23.163.03l.917-.515c6.397-3.593 6.432-9.473.07-13.136l-1.057-.61zM207.873 120.833c-6.358-3.662-16.669-3.646-23.023.03l-.948.55c-6.357 3.678-6.324 9.587.07 13.195l.808.456c6.396 3.609 16.777 3.616 23.164.03l.917-.515c6.397-3.593 6.43-9.472.07-13.136l-1.058-.61zM190.277 41.069c-1.916-1.093-5.008-1.057-6.904.078l-44.572 26.699c-1.898 1.136-1.873 2.913.067 3.976l5.334 2.922c1.934 1.06 5.046 1.006 6.945-.116L195.82 48.23c1.901-1.124 1.89-2.92-.026-4.014l-5.516-3.147zM226.63 62.35c-1.915-1.093-5.008-1.057-6.904.078l-44.572 26.699c-1.898 1.136-1.873 2.914.067 3.976l5.334 2.922c1.934 1.06 5.046 1.007 6.946-.116l44.67-26.398c1.902-1.124 1.892-2.92-.025-4.014l-5.516-3.147zM262.842 83.784c-1.916-1.093-5.009-1.057-6.904.078l-44.573 26.699c-1.897 1.136-1.873 2.914.068 3.976l5.333 2.922c1.935 1.06 5.046 1.007 6.946-.116l44.671-26.398c1.901-1.124 1.89-2.92-.026-4.014l-5.515-3.147z" stroke="#2897C5" fill-opacity=".333" fill="#2897C5"/><path d="M167.316 13.983l8.253-.15" stroke="#2897C5" stroke-width="3"/></g></svg>