<?xml version="1.0" encoding="UTF-8" standalone="no"?>
<!-- Created with Inkscape (http://www.inkscape.org/) -->

<svg
   xmlns:dc="http://purl.org/dc/elements/1.1/"
   xmlns:cc="http://creativecommons.org/ns#"
   xmlns:rdf="http://www.w3.org/1999/02/22-rdf-syntax-ns#"
   xmlns:svg="http://www.w3.org/2000/svg"
   xmlns="http://www.w3.org/2000/svg"
   xmlns:sodipodi="http://sodipodi.sourceforge.net/DTD/sodipodi-0.dtd"
   xmlns:inkscape="http://www.inkscape.org/namespaces/inkscape"
   width="42.446224mm"
   height="48.175335mm"
   viewBox="0 0 150.40001 170.7"
   id="svg3363"
   version="1.1"
   inkscape:version="0.91 r13725"
   sodipodi:docname="test-logo-shopify.svg">
  <defs
     id="defs3365">
    <clipPath
       clipPathUnits="userSpaceOnUse"
       id="clipPath3400">
      <rect
         style="fill:#0000ff;fill-rule:evenodd;stroke:#000000;stroke-width:1px;stroke-linecap:butt;stroke-linejoin:miter;stroke-opacity:1"
         id="rect3402"
         width="175.71428"
         height="188.57143"
         x="19.285715"
         y="13.790775" />
    </clipPath>
  </defs>
  <sodipodi:namedview
     id="base"
     pagecolor="#ffffff"
     bordercolor="#666666"
     borderopacity="1.0"
     inkscape:pageopacity="0.0"
     inkscape:pageshadow="2"
     inkscape:zoom="1.4"
     inkscape:cx="-0.38209364"
     inkscape:cy="-123.29905"
     inkscape:document-units="px"
     inkscape:current-layer="layer1"
     showgrid="false"
     inkscape:window-width="1920"
     inkscape:window-height="1027"
     inkscape:window-x="-8"
     inkscape:window-y="-8"
     inkscape:window-maximized="1"
     fit-margin-top="0"
     fit-margin-left="0"
     fit-margin-right="0"
     fit-margin-bottom="0" />
  <metadata
     id="metadata3368">
    <rdf:RDF>
      <cc:Work
         rdf:about="">
        <dc:format>image/svg+xml</dc:format>
        <dc:type
           rdf:resource="http://purl.org/dc/dcmitype/StillImage" />
        <dc:title></dc:title>
      </cc:Work>
    </rdf:RDF>
  </metadata>
  <g
     inkscape:label="Calque 1"
     inkscape:groupmode="layer"
     id="layer1"
     transform="translate(-6.799997,-2.726483)">
    <g
       id="g3391"
       clip-path="url(#clipPath3400)"
       transform="translate(-25.71429,-21.428576)">
      <path
         id="path3338"
         d="m 164.11429,57.355059 c -0.1,-0.9 -0.9,-1.3 -1.5,-1.3 -0.6,0 -13.7,-1 -13.7,-1 0,0 -9.1,-9.1 -10.2,-10 -1,-1 -2.9,-0.7 -3.7,-0.5 -0.1,0 -2,0.6 -5.1,1.6 -3.1,-8.9 -8.4,-17 -17.9,-17 l -0.9,0 c -2.6,-3.4 -6,-5 -8.8,-5 -22.000003,0 -32.600003,27.5 -35.900003,41.5 -8.6,2.7 -14.7,4.5 -15.4,4.8 -4.8,1.5 -4.9,1.6 -5.5,6.1 -0.5,3.4 -13,100.100001 -13,100.100001 l 97.300003,18.2 52.8,-11.4 c 0.1,-0.2 -18.4,-125.200001 -18.5,-126.100001 z m -39.6,-9.8 c -2.4,0.7 -5.3,1.6 -8.2,2.6 l 0,-1.8 c 0,-5.4 -0.7,-9.8 -2,-13.3 5,0.6 8.1,6.1 10.2,12.5 z m -16.3,-11.4 c 1.3,3.4 2.2,8.2 2.2,14.8 l 0,1 c -5.4,1.7 -11.100003,3.4 -17.000003,5.3 3.3,-12.6 9.600003,-18.8 14.800003,-21.1 z m -6.4,-6.2 c 1,0 2,0.4 2.8,1 -7.100003,3.3 -14.600003,11.6 -17.700003,28.4 -4.7,1.5 -9.2,2.8 -13.5,4.2 3.6,-12.8 12.6,-33.6 28.400003,-33.6 z"
         style="fill:#ffffff"
         inkscape:connector-curvature="0" />
      <path
         id="path3340"
         d="m 162.61429,55.855059 c -0.6,0 -13.7,-1 -13.7,-1 0,0 -9.1,-9.1 -10.2,-10 -0.4,-0.4 -0.9,-0.6 -1.3,-0.6 l -7.3,150.600001 52.8,-11.4 c 0,0 -18.5,-125.200001 -18.6,-126.100001 -0.4,-0.9 -1.1,-1.3 -1.7,-1.5 z"
         style="fill:#ffffff"
         inkscape:connector-curvature="0" />
      <path
         id="path3342"
         d="m 112.01429,85.055059 -6.4,19.300001 c 0,0 -5.800003,-3.1 -12.700003,-3.1 -10.3,0 -10.8,6.5 -10.8,8.1 0,8.8 23.000003,12.2 23.000003,32.9 0,16.3 -10.300003,26.8 -24.200003,26.8 -16.8,0 -25.2,-10.4 -25.2,-10.4 l 4.5,-14.8 c 0,0 8.8,7.6 16.2,7.6 4.9,0 6.9,-3.8 6.9,-6.6 0,-11.5 -18.8,-12 -18.8,-31 0,-15.900001 11.4,-31.300001 34.5,-31.300001 8.600003,-0.1 13.000003,2.5 13.000003,2.5 z"
         style="fill:#95bf47"
         inkscape:connector-curvature="0" />
    </g>
  </g>
</svg>
